<svg width="24" height="24" viewBox="0 0 24 24" fill="none" xmlns="http://www.w3.org/2000/svg">
<path d="M8.12402 14.4551H11.7559L8.81738 16.5898L9.93945 20.0449L7.00098 17.9102L4.0625 20.0449L5.18457 16.5898L2.24609 14.4551H5.87793L7.00098 11L8.12402 14.4551Z" fill="#FFBC59"/>
<path d="M18.124 14.4551H21.7559L18.8174 16.5898L19.9395 20.0449L17.001 17.9102L14.0625 20.0449L15.1846 16.5898L12.2461 14.4551H15.8779L17.001 11L18.124 14.4551Z" fill="#FFBC59"/>
<path d="M13.124 6.45508H16.7559L13.8174 8.58984L14.9395 12.0449L12.001 9.91016L9.0625 12.0449L10.1846 8.58984L7.24609 6.45508H10.8779L12.001 3L13.124 6.45508Z" fill="#FFBC59"/>
</svg>
