<svg width="24" height="24" viewBox="0 0 24 24" fill="none" xmlns="http://www.w3.org/2000/svg">
<path d="M13.7932 8.04353C13.9135 8.37725 14.2666 8.57513 14.6234 8.50823L20 7.5L18.6153 9.05748C18.615 9.05786 18.6148 9.05836 18.6145 9.05873L16.4156 11.5324C16.177 11.8008 16.177 12.1992 16.4156 12.4676L20 16.5L14.6231 15.4916C14.2665 15.4249 13.9135 15.6228 13.7932 15.9563L12 21L10.2067 15.9563C10.0863 15.6228 9.73343 15.4248 9.37672 15.4916L4 16.5L7.58424 12.4676C7.82284 12.1992 7.82298 11.8008 7.58438 11.5324L5.38553 9.05873C5.38517 9.05833 5.38488 9.05788 5.38452 9.05748L4 7.5L9.37658 8.50823C9.73338 8.57513 10.0863 8.37722 10.2067 8.04353L12 3L13.7932 8.04353Z" fill="black"/>
</svg>
