<svg width="24" height="24" viewBox="0 0 24 24" fill="none" xmlns="http://www.w3.org/2000/svg">
<path d="M4.99894 4.46753C4.50853 5.61905 3.77292 7.34632 4.01812 9.5671C4.20659 11.274 5.16241 12.2814 6.79709 13.1039C8.43178 13.9264 9.73954 14.9134 10.8021 17.0519C11.3203 18.0948 11.7012 19.6017 11.7012 21C9.33086 20.8355 5.32964 18.6593 3.85465 16.6407C1.81129 13.8442 1.5872 10.0348 2.5469 7.83983C3.44598 5.78355 4.50853 4.93362 4.99894 4.46753Z" fill="black"/>
<path d="M19.0011 4.46753C19.4915 4.93362 20.554 5.78356 21.4531 7.83983C22.4128 10.0348 22.1887 13.8442 20.1453 16.6407C18.6704 18.6593 14.6691 20.8355 12.2988 21C12.2988 19.6017 12.6797 18.0948 13.1979 17.0519C14.2605 14.9134 15.5682 13.9264 17.2029 13.1039C18.8376 12.2814 19.7934 11.274 19.9819 9.5671C20.2271 7.34632 19.4915 5.61905 19.0011 4.46753Z" fill="black"/>
<path d="M11.9719 2C11.9723 2.00287 12.3898 4.88573 13.8237 5.5368C14.7094 5.93891 16.2392 6.0303 17.3664 5.78355C16.4002 6.60606 15.0315 7.26408 13.9848 8.74459C12.6809 10.5888 12.3745 11.8701 11.9719 14.9957C11.5693 11.8701 11.2629 10.5888 9.95903 8.74459C8.91235 7.26408 7.54361 6.60606 6.57743 5.78355C7.70463 6.0303 9.23445 5.93891 10.1201 5.5368C11.5547 4.88539 11.9719 2 11.9719 2Z" fill="black"/>
</svg>
