<svg width="24" height="24" viewBox="0 0 24 24" fill="none" xmlns="http://www.w3.org/2000/svg">
<path d="M18.6087 11.6471C19.3771 11.6471 20 12.2791 20 13.0588V17.1176C20 17.8973 19.3771 18.5294 18.6087 18.5294H17.0435C16.4672 18.5294 16 19.0035 16 19.5882V20.6471C16 20.842 15.8443 21 15.6522 21H8.52174C8.32964 21 8.17391 20.842 8.17391 20.6471V19.5882C8.17391 19.3933 8.32964 19.2353 8.52174 19.2353H8.86957C9.44586 19.2353 9.91304 18.7612 9.91304 18.1765V16.7647C9.91304 16.2774 10.3024 15.8824 10.7826 15.8824H12.1739C12.7502 15.8824 13.2174 15.4083 13.2174 14.8235V13.0588C13.2174 12.2791 13.8403 11.6471 14.6087 11.6471H18.6087Z" fill="black"/>
<path d="M11.1304 11.6471C11.8988 11.6471 12.5217 12.2791 12.5217 13.0588V13.7647C12.5217 14.5444 11.8988 15.1765 11.1304 15.1765H10.4348V15.1801C10.4061 15.1779 10.3771 15.1765 10.3478 15.1765C9.7235 15.1765 9.21739 15.69 9.21739 16.3235C9.21739 16.3532 9.21894 16.3826 9.22113 16.4118H9.21739V16.7647C9.21739 17.7393 8.43876 18.5294 7.47826 18.5294H5.73913C4.77864 18.5294 4 17.7393 4 16.7647V13.4118C4 12.9811 4.1521 12.5864 4.40472 12.28C4.65381 11.8986 5.08052 11.6471 5.56522 11.6471H11.1304Z" fill="black"/>
<path d="M6.78261 4.23529C7.16681 4.23529 7.47826 4.55133 7.47826 4.94118V10.2353C7.47826 10.6251 7.16681 10.9412 6.78261 10.9412H4.69565C4.31145 10.9412 4 10.6251 4 10.2353V4.94118C4 4.55133 4.31145 4.23529 4.69565 4.23529H6.78261Z" fill="black"/>
<path d="M10.9565 3C11.3407 3 11.6522 3.31603 11.6522 3.70588V10.2353C11.6522 10.6251 11.3407 10.9412 10.9565 10.9412H8.86957C8.48537 10.9412 8.17391 10.6251 8.17391 10.2353V3.70588C8.17391 3.31603 8.48537 3 8.86957 3H10.9565Z" fill="black"/>
<path d="M15.1304 3C15.5146 3 15.8261 3.31603 15.8261 3.70588V10.2353C15.8261 10.6251 15.5146 10.9412 15.1304 10.9412H13.0435C12.6593 10.9412 12.3478 10.6251 12.3478 10.2353V3.70588C12.3478 3.31603 12.6593 3 13.0435 3H15.1304Z" fill="black"/>
<path d="M19.3043 4.23529C19.6885 4.23529 20 4.55133 20 4.94118V10.2353C20 10.6251 19.6885 10.9412 19.3043 10.9412H17.2174C16.8332 10.9412 16.5217 10.6251 16.5217 10.2353V4.94118C16.5217 4.55133 16.8332 4.23529 17.2174 4.23529H19.3043Z" fill="black"/>
</svg>
