<svg width="24" height="24" viewBox="0 0 24 24" fill="none" xmlns="http://www.w3.org/2000/svg">
<path d="M10.8096 3C11.4294 3.35994 12.5212 3.1439 14.1572 5.51953C15.0905 6.87497 15.0988 10.0306 14.8262 11.5664C14.9006 11.5904 15.0351 11.6816 15.8682 11.5664C16.6116 11.4636 16.857 11.3905 17.876 10.7744C18.4712 10.4143 19.0406 9.43044 19.0654 8.97461C19.0902 8.97461 19.4728 9.21639 19.6611 10.127C19.8993 11.2786 19.5873 12.2144 18.9922 13.0781C18.4638 13.8449 17.2809 14.7343 16.5371 15.2383C16.9092 15.1903 17.9652 15.1306 18.8428 14.7344C19.9588 14.2305 20.6777 13.7499 21 13.2939C21 13.3659 20.9549 13.971 20.7764 14.6621C20.5532 15.526 20.2908 16.2604 19.3633 17.3975C18.2476 18.7652 17.3548 19.3412 15.8672 20.2051C14.6771 20.8961 12.6935 21.0211 11.8506 20.9971C7.46286 21.0689 5.41075 19.0726 4.19043 17.4697C3.14912 16.1019 3 14.9261 3 14.1582C3.02479 14.2302 3.30281 14.7713 3.89258 15.2383C4.71075 15.8862 5.45487 16.2459 6.0498 16.4619C5.72764 15.9821 5.24637 15.1089 4.71094 14.3027C4.04155 13.2949 3.91342 11.2326 4.41309 10.127C4.93374 8.97513 6.22354 8.06363 6.86816 7.67969C6.79344 7.79987 6.41935 8.18872 6.27246 8.61523C6.04939 9.26296 5.90132 9.83888 6.12402 10.7744C6.27161 11.3942 7.21429 12.2864 7.75977 12.6465C7.61099 11.9746 7.26451 11.3079 7.31445 10.5586C7.46327 8.32766 8.92509 7.75155 9.39648 7.3916C10.1154 6.81579 11.5793 6.02581 11.6279 5.37598C11.7026 4.36813 11.2806 3.59991 10.8096 3ZM12.2979 12.6465C11.8764 12.5985 10.9588 12.7186 10.1406 13.4385C9.2036 14.263 9.47188 14.8059 9.84375 15.3818C10.6874 16.6883 10.2151 16.8703 10.0664 17.3262C9.96725 16.8703 9.39729 16.3179 9.02539 16.1738C8.41767 15.9386 7.98356 16.1258 7.90918 16.1738C8.42975 16.4377 9.04781 17.2768 8.5791 17.6855C7.83531 18.3334 7.47659 20.6377 11.7031 20.6377C12.9675 20.6377 13.8448 20.5504 14.6777 19.917C15.7188 19.1252 14.6042 18.1897 14.3809 17.2539C14.1576 16.318 14.9511 15.7418 15.2734 15.3818C14.9759 15.3098 14.3583 15.4149 13.9336 15.5977C13.2645 15.8857 12.992 16.4861 12.7441 16.75C12.893 15.0942 12.5215 15.1656 11.6289 14.3018C11.103 13.7927 11.9507 13.1744 12.2979 12.6465Z" fill="black"/>
</svg>
