<svg width="24" height="24" viewBox="0 0 24 24" fill="none" xmlns="http://www.w3.org/2000/svg">
<path d="M15.0137 3C17.0053 5.47764 18.699 8.14991 19.3701 10.1416C20.1803 12.5464 20.3358 14.2666 19.0732 15.9717C17.6702 17.8664 13.6592 18.5219 11.6162 18.5947L11.7646 21L9.2539 20.6357L8.80761 18.2305C8.43838 18.0847 7.95007 17.8811 6.88671 17.3564C5.55763 16.7006 4.12386 15.7407 4.00976 13.4941C3.86181 10.5792 5.41167 8.83024 7.62694 6.93555C9.39922 5.41976 13.3645 3.60729 15.0137 3ZM11.3828 8.68457C11.1613 8.53883 10.5706 8.10085 9.68456 7.95508C9.09775 7.85856 8.47919 7.85858 8.35546 7.88281C8.87235 8.02859 9.72863 8.34891 10.2012 8.75684C10.6738 9.16493 10.7178 9.26759 10.7178 9.85059C10.7176 10.292 10.3518 11.082 10.3486 11.0889C9.91088 10.7974 9.32177 10.4708 8.65038 10.3604C7.7646 10.2147 6.80504 10.4329 6.43554 10.5059C7.0263 10.5788 7.95939 10.7821 8.72948 11.1621C9.46793 11.5265 9.91797 11.887 9.91112 12.5469C9.90576 13.0521 9.61607 14.1282 9.61034 14.1494C9.38888 13.9795 9.09367 13.7849 8.57714 13.5664C7.86856 13.2667 7.29501 13.2783 6.95214 13.2754C6.34806 13.2702 5.99216 13.4207 5.62304 13.5664C5.99219 13.5664 6.5089 13.6399 7.24706 13.8584C7.98551 14.077 8.404 14.417 8.65038 14.6602C9.09341 15.0974 9.34713 15.5346 9.38866 16.1904C9.46251 17.3564 9.61027 18.3182 10.2012 18.668C10.1719 18.0031 10.0539 16.5606 10.792 15.8984C11.6042 15.1698 12.343 14.8055 13.5244 14.5869C15.0751 14.3 16.4041 14.3687 17.1426 14.6602C16.8472 14.2958 15.7398 13.8585 13.9678 13.8584C11.9681 13.8584 11.1116 14.3446 10.7178 14.5146C10.7916 12.4743 12.112 11.774 13.4502 11.5264C15.8132 11.0891 16.8477 11.5265 17.4385 11.7451C17.1677 11.2836 15.9612 10.6514 13.8935 10.6514C12.3474 10.6514 11.8505 11.1376 11.3828 11.3076C11.4813 10.6032 12.2352 9.38369 13.8935 8.90234C15.1487 8.53809 16.2562 8.66026 16.5517 8.68457C16.2072 8.34449 14.6647 8.09293 13.4502 8.39258C12.5651 8.61095 12.3184 8.82924 12.1953 8.90234L13.7461 5.18652L11.3828 8.68457Z" fill="black"/>
</svg>
