<svg width="24" height="24" viewBox="0 0 24 24" fill="none" xmlns="http://www.w3.org/2000/svg">
<path d="M16.7954 18.0421L14.937 21H9.09619L7.23775 18.0421L8.47671 15.891L10.3908 18.8104H13.6424L15.5565 15.891L16.7954 18.0421Z" fill="black"/>
<path d="M12.0166 16.256L7.11157 7.49777H16.9216L12.0166 16.256Z" fill="black"/>
<path d="M9.57532 5.20256L6.16213 5.39037L4.48743 8.26362L5.92896 11.4587L3.50238 11.4457L2 8.28001L5.00838 3.11867L8.42486 3L9.57532 5.20256Z" fill="black"/>
<path d="M18.9916 3.11867L22 8.28001L20.4976 11.4457L18.071 11.4587L19.5126 8.26362L17.8379 5.39037L14.4247 5.20256L15.5751 3L18.9916 3.11867Z" fill="black"/>
</svg>
