<svg width="24" height="24" viewBox="0 0 24 24" fill="none" xmlns="http://www.w3.org/2000/svg">
<path fill-rule="evenodd" clip-rule="evenodd" d="M22 12C22 12 19.1429 19 12 19C4.85714 19 2 12 2 12C2 12 4.85714 5 12 5C19.1429 5 22 12 22 12ZM20 12C19.9992 11.9982 17.9379 7.21297 13.0083 6.62332C15.1663 7.12895 16.7692 9.01074 16.7692 11.2553C16.7692 13.8875 14.5651 16.0213 11.8462 16.0213C9.12721 16.0213 6.92308 13.8875 6.92308 11.2553C6.92308 9.1721 8.30381 7.4013 10.2276 6.7532C5.87919 7.71311 4.15452 11.9983 4.15385 12C4.15461 12.0019 6.34164 17.4362 12 17.4362C17.6584 17.4362 19.9992 12.0019 20 12ZM11.7979 9.02128C11.5403 9.02128 11.2924 9.06051 11.0604 9.13298C11.5049 9.41312 11.7979 9.89213 11.7979 10.4362C11.7979 11.2998 11.0596 12 10.1489 12C9.93316 12 9.72732 11.9602 9.53846 11.8887C9.82644 12.814 10.7289 13.4894 11.7979 13.4894C13.099 13.4894 14.1537 12.4891 14.1537 11.2553C14.1537 10.0215 13.099 9.02128 11.7979 9.02128Z" fill="black"/>
</svg>
