<svg width="24" height="24" viewBox="0 0 24 24" fill="none" xmlns="http://www.w3.org/2000/svg">
<path d="M21 3C17.7727 3.70002 13.6501 6.58712 15.2656 9.56152C16.5246 11.8792 19.3887 13.5862 19.3887 16.8232C19.3886 18.3643 18.4506 20.156 15.0908 20.7598C7.30167 22.1594 2.99998 17.1255 3 13.7607C3.00005 11.2236 3.71871 7.2869 9.89844 4.9248C14.8007 3.05105 19.4179 3.08746 21 3ZM10.3994 16.9932C8.9126 16.4644 7.51508 16.5509 7.27832 17.1865C7.0417 17.8221 8.05532 18.7661 9.54199 19.2949C11.0289 19.8237 12.4263 19.7372 12.6631 19.1016C12.8999 18.4659 11.8863 17.522 10.3994 16.9932Z" fill="black"/>
</svg>
