<svg width="24" height="24" viewBox="0 0 24 24" fill="none" xmlns="http://www.w3.org/2000/svg">
<path d="M15.001 2C17.1764 2.00013 18.9403 3.764 18.9404 5.93945C18.9403 7.15794 18.3868 8.24703 17.5176 8.96973C18.3868 9.69227 18.9403 10.7815 18.9404 12C18.9403 14.1755 17.1764 15.9393 15.001 15.9395C14.2193 15.9394 13.4915 15.7102 12.8789 15.3174V18.0605C12.8788 20.236 11.1148 21.9998 8.93945 22C6.76403 21.9998 5.00013 20.236 5 18.0605C5.00009 16.8423 5.55311 15.7528 6.42188 15.0303C5.55314 14.3076 5.00009 13.2183 5 12C5.00009 10.7817 5.55312 9.69228 6.42188 8.96973C5.55314 8.24702 5.00011 7.1577 5 5.93945C5.00016 3.76402 6.76405 2.00016 8.93945 2H15.001ZM8.93945 15.9395C7.76819 15.9396 6.81852 16.8893 6.81836 18.0605C6.81849 19.2319 7.76817 20.1815 8.93945 20.1816C10.1107 20.1814 11.0604 19.2318 11.0605 18.0605V15.9395H8.93945ZM8.93945 9.87891C7.76819 9.87907 6.81852 10.8287 6.81836 12C6.81852 13.1713 7.76819 14.1209 8.93945 14.1211H11.0605V9.87891H8.93945ZM15.001 9.87891C13.8297 9.87906 12.88 10.8287 12.8799 12C12.88 13.1713 13.8297 14.1209 15.001 14.1211C16.1723 14.121 17.1219 13.1713 17.1221 12C17.1219 10.8287 16.1723 9.87903 15.001 9.87891ZM8.93945 3.81836C7.76819 3.81852 6.81852 4.76817 6.81836 5.93945C6.81855 7.1107 7.76821 8.06039 8.93945 8.06055H11.0605V3.81836H8.93945ZM12.8799 8.06055H15.001C16.1722 8.06042 17.1219 7.11072 17.1221 5.93945C17.1219 4.76815 16.1723 3.81849 15.001 3.81836H12.8799V8.06055Z" fill="black"/>
</svg>
