<svg width="24" height="24" viewBox="0 0 24 24" fill="none" xmlns="http://www.w3.org/2000/svg">
<path d="M12.5283 1.76367C17.9442 2.03842 22.251 6.51684 22.251 12.001L22.2373 12.5283C21.9715 17.7694 17.7694 21.9715 12.5283 22.2373L12.001 22.251C6.51684 22.251 2.03842 17.9442 1.76367 12.5283L1.75 12.001C1.75 6.33979 6.33979 1.75 12.001 1.75L12.5283 1.76367ZM3.69238 13.0312C4.19104 17.1458 7.70498 20.3365 11.9717 20.3369C16.2387 20.3369 19.7533 17.146 20.252 13.0312H16.3418C15.8983 14.9513 14.2159 16.3987 12.1777 16.4902L11.9727 16.4951C9.84311 16.4949 8.06097 15.0154 7.60254 13.0312H3.69238ZM11.9561 9.56738C10.5923 9.56742 9.48828 10.669 9.48828 12.0254L9.50098 12.2764C9.62741 13.5147 10.6776 14.4824 11.9561 14.4824L12.208 14.4697C13.4531 14.344 14.4236 13.2968 14.4238 12.0254C14.4238 10.754 13.4538 9.70635 12.209 9.58008L11.9561 9.56738ZM11.5654 3.72363C7.4834 3.91891 4.17489 7.03616 3.69238 11.0195H7.60254C8.0608 9.03512 9.84298 7.55592 11.9727 7.55566L12.1777 7.56055C14.2161 7.6521 15.8984 9.09922 16.3418 11.0195H20.252C19.7535 6.90458 16.2389 3.71387 11.9717 3.71387L11.5654 3.72363Z" fill="black"/>
</svg>
