<svg width="24" height="24" viewBox="0 0 24 24" fill="none" xmlns="http://www.w3.org/2000/svg">
<path d="M12.001 2C17.5239 2.00026 22.001 6.47802 22.001 12.001C22.0007 17.5237 17.5237 22.0007 12.001 22.001C6.47802 22.001 2.00026 17.5239 2 12.001C2 6.47786 6.47786 2 12.001 2ZM3.41309 12.7812C3.79759 17.155 7.48133 20.5865 11.9717 20.5869C16.4624 20.5869 20.1467 17.1552 20.5312 12.7812H16.1387C15.7808 14.7505 14.0527 16.245 11.9727 16.2451C9.89264 16.2449 8.16357 14.7506 7.80566 12.7812H3.41309ZM11.9561 9.31738C10.455 9.31742 9.23828 10.5301 9.23828 12.0254C9.23855 13.5204 10.4552 14.7324 11.9561 14.7324C13.4569 14.7323 14.6736 13.5204 14.6738 12.0254C14.6738 10.5302 13.4571 9.31746 11.9561 9.31738ZM11.9717 3.46387C7.48115 3.46424 3.79734 6.89556 3.41309 11.2695H7.80566C8.16337 9.3 9.89247 7.80592 11.9727 7.80566C14.0529 7.80582 15.781 9.3 16.1387 11.2695H20.5312C20.147 6.89532 16.4625 3.46387 11.9717 3.46387Z" fill="black"/>
</svg>
