<svg width="24" height="24" viewBox="0 0 24 24" fill="none" xmlns="http://www.w3.org/2000/svg">
<path d="M12.7849 15.738V14.1185H17.0241V15.738H12.7849ZM14.3446 21.2033V19.8755H12.7849V18.256H14.3446V16.9283H15.9644V21.2033H14.3446ZM16.9644 19.8755V18.256H21.2034V19.8755H16.9644ZM18.0241 17.0658V12.7908H19.6436V14.1185H21.2034V15.738H19.6436V17.0658H18.0241ZM20.9844 10H18.6881C18.2556 8.53684 17.4322 7.33967 16.2179 6.4085C15.0034 5.4775 13.5976 5.012 12.0006 5.012C10.0543 5.012 8.40296 5.69 7.04662 7.046C5.69029 8.402 5.01212 10.0533 5.01212 12C5.01212 13.1442 5.26304 14.1963 5.76487 15.1565C6.26671 16.1167 6.94404 16.9134 7.79688 17.5468V14.988H10.0121V21.2033H3.79687V18.988H6.03337C5.03187 18.1388 4.24204 17.113 3.66388 15.9105C3.08587 14.7082 2.79688 13.4047 2.79688 12C2.79688 10.7225 3.03937 9.52584 3.52437 8.41C4.00937 7.29434 4.66596 6.32234 5.49412 5.494C6.32246 4.66584 7.29446 4.00925 8.41013 3.52425C9.52596 3.03925 10.7226 2.79675 12.0001 2.79675C14.2041 2.79675 16.139 3.47917 17.8046 4.844C19.4705 6.20884 20.5304 7.9275 20.9844 10Z" fill="black"/>
</svg>
